# xmcd
#
# Track frame offsets:
#	150
#	3118
#	19865
#	37488
#	55904
#	70208
#	89803
#	107110
#	124462
#	146282
#	164893
#	181831
#	201514
#	216849
#
# Disc length: 3058 seconds
#
# Revision: 1
# Processed by: cddbd v1.5.2PL0 Copyright (c) Steve Scherf et al.
# Submitted via: audiograbber 1.83.01
#
DISCID=da0bf00e
DTITLE=killa instinct - hellmonica
DYEAR=2012
DGENRE=britcore
TTITLE0=intro
TTITLE1=heartless bastards
TTITLE2=snappin' up ya necks
TTITLE3=i scream hellmonica
TTITLE4=chaos and tranquility
TTITLE5=time is running out
TTITLE6=uninvited
TTITLE7=new moon
TTITLE8=holier than thou
TTITLE9=get the fuck out now
TTITLE10=let it out
TTITLE11=paradise falls
TTITLE12=fear won't change this
TTITLE13=nothing to lose
EXTD=
EXTT0=
EXTT1=
EXTT2=
EXTT3=
EXTT4=
EXTT5=
EXTT6=
EXTT7=
EXTT8=
EXTT9=
EXTT10=
EXTT11=
EXTT12=
EXTT13=
PLAYORDER=
